<mxfile host="app.diagrams.net" agent="Mozilla/5.0 (Windows NT 10.0; Win64; x64) AppleWebKit/537.36 (KHTML, like Gecko) Chrome/129.0.0.0 Safari/537.36" version="24.8.0">
  <diagram name="PÃ¡gina-1" id="JTExMkv25DLJzzsG_6F9">
    <mxGraphModel dx="2261" dy="780" grid="1" gridSize="10" guides="1" tooltips="1" connect="1" arrows="1" fold="1" page="1" pageScale="1" pageWidth="827" pageHeight="1169" math="0" shadow="0">
      <root>
        <mxCell id="0" />
        <mxCell id="1" parent="0" />
        <mxCell id="0_zP4iUOua5YnoaZtltN-3" value="AWS Account 123456789" style="points=[[0,0],[0.25,0],[0.5,0],[0.75,0],[1,0],[1,0.25],[1,0.5],[1,0.75],[1,1],[0.75,1],[0.5,1],[0.25,1],[0,1],[0,0.75],[0,0.5],[0,0.25]];outlineConnect=0;gradientColor=none;html=1;whiteSpace=wrap;fontSize=12;fontStyle=0;container=1;pointerEvents=0;collapsible=0;recursiveResize=0;shape=mxgraph.aws4.group;grIcon=mxgraph.aws4.group_account;strokeColor=#CD2264;fillColor=none;verticalAlign=top;align=left;spacingLeft=30;fontColor=#CD2264;dashed=0;" parent="1" vertex="1">
          <mxGeometry x="180" y="120" width="950" height="610" as="geometry" />
        </mxCell>
        <mxCell id="0_zP4iUOua5YnoaZtltN-11" style="edgeStyle=orthogonalEdgeStyle;rounded=0;orthogonalLoop=1;jettySize=auto;html=1;" parent="0_zP4iUOua5YnoaZtltN-3" source="0_zP4iUOua5YnoaZtltN-4" target="0_zP4iUOua5YnoaZtltN-8" edge="1">
          <mxGeometry relative="1" as="geometry" />
        </mxCell>
        <mxCell id="0_zP4iUOua5YnoaZtltN-4" value="S3 Bucket&lt;div&gt;Input&lt;/div&gt;" style="sketch=0;points=[[0,0,0],[0.25,0,0],[0.5,0,0],[0.75,0,0],[1,0,0],[0,1,0],[0.25,1,0],[0.5,1,0],[0.75,1,0],[1,1,0],[0,0.25,0],[0,0.5,0],[0,0.75,0],[1,0.25,0],[1,0.5,0],[1,0.75,0]];outlineConnect=0;fontColor=#232F3E;fillColor=#7AA116;strokeColor=#ffffff;dashed=0;verticalLabelPosition=bottom;verticalAlign=top;align=center;html=1;fontSize=12;fontStyle=0;aspect=fixed;shape=mxgraph.aws4.resourceIcon;resIcon=mxgraph.aws4.s3;" parent="0_zP4iUOua5YnoaZtltN-3" vertex="1">
          <mxGeometry x="150" y="250" width="60" height="60" as="geometry" />
        </mxCell>
        <mxCell id="0_zP4iUOua5YnoaZtltN-12" value="" style="edgeStyle=orthogonalEdgeStyle;rounded=0;orthogonalLoop=1;jettySize=auto;html=1;" parent="0_zP4iUOua5YnoaZtltN-3" source="0_zP4iUOua5YnoaZtltN-8" target="0_zP4iUOua5YnoaZtltN-9" edge="1">
          <mxGeometry relative="1" as="geometry" />
        </mxCell>
        <mxCell id="0_zP4iUOua5YnoaZtltN-8" value="Crawler" style="sketch=0;outlineConnect=0;fontColor=#232F3E;gradientColor=none;fillColor=#8C4FFF;strokeColor=none;dashed=0;verticalLabelPosition=bottom;verticalAlign=top;align=center;html=1;fontSize=12;fontStyle=0;aspect=fixed;pointerEvents=1;shape=mxgraph.aws4.glue_crawlers;" parent="0_zP4iUOua5YnoaZtltN-3" vertex="1">
          <mxGeometry x="300" y="252.87" width="55" height="55" as="geometry" />
        </mxCell>
        <mxCell id="0_zP4iUOua5YnoaZtltN-7" value="AWS Glue&lt;div&gt;Job&lt;/div&gt;" style="sketch=0;points=[[0,0,0],[0.25,0,0],[0.5,0,0],[0.75,0,0],[1,0,0],[0,1,0],[0.25,1,0],[0.5,1,0],[0.75,1,0],[1,1,0],[0,0.25,0],[0,0.5,0],[0,0.75,0],[1,0.25,0],[1,0.5,0],[1,0.75,0]];outlineConnect=0;fontColor=#232F3E;fillColor=#8C4FFF;strokeColor=#ffffff;dashed=0;verticalLabelPosition=bottom;verticalAlign=top;align=center;html=1;fontSize=12;fontStyle=0;aspect=fixed;shape=mxgraph.aws4.resourceIcon;resIcon=mxgraph.aws4.glue;" parent="0_zP4iUOua5YnoaZtltN-3" vertex="1">
          <mxGeometry x="570" y="250" width="60" height="60" as="geometry" />
        </mxCell>
        <mxCell id="0_zP4iUOua5YnoaZtltN-13" value="" style="edgeStyle=orthogonalEdgeStyle;rounded=0;orthogonalLoop=1;jettySize=auto;html=1;" parent="0_zP4iUOua5YnoaZtltN-3" source="0_zP4iUOua5YnoaZtltN-9" target="0_zP4iUOua5YnoaZtltN-7" edge="1">
          <mxGeometry relative="1" as="geometry" />
        </mxCell>
        <mxCell id="0_zP4iUOua5YnoaZtltN-9" value="AWS Glue&lt;div&gt;Data Catalog&lt;/div&gt;&lt;div&gt;input table&lt;/div&gt;" style="sketch=0;outlineConnect=0;fontColor=#232F3E;gradientColor=none;fillColor=#8C4FFF;strokeColor=none;dashed=0;verticalLabelPosition=bottom;verticalAlign=top;align=center;html=1;fontSize=12;fontStyle=0;aspect=fixed;pointerEvents=1;shape=mxgraph.aws4.glue_data_catalog;" parent="0_zP4iUOua5YnoaZtltN-3" vertex="1">
          <mxGeometry x="440" y="251.79000000000002" width="52.77" height="57.16" as="geometry" />
        </mxCell>
        <mxCell id="0_zP4iUOua5YnoaZtltN-15" value="AWS Glue&lt;div&gt;Data Catalog&lt;/div&gt;&lt;div&gt;output table&lt;/div&gt;" style="sketch=0;outlineConnect=0;fontColor=#232F3E;gradientColor=none;fillColor=#8C4FFF;strokeColor=none;dashed=0;verticalLabelPosition=bottom;verticalAlign=top;align=center;html=1;fontSize=12;fontStyle=0;aspect=fixed;pointerEvents=1;shape=mxgraph.aws4.glue_data_catalog;" parent="0_zP4iUOua5YnoaZtltN-3" vertex="1">
          <mxGeometry x="710" y="251.79000000000002" width="52.77" height="57.16" as="geometry" />
        </mxCell>
        <mxCell id="0_zP4iUOua5YnoaZtltN-17" value="AWS Athena" style="sketch=0;points=[[0,0,0],[0.25,0,0],[0.5,0,0],[0.75,0,0],[1,0,0],[0,1,0],[0.25,1,0],[0.5,1,0],[0.75,1,0],[1,1,0],[0,0.25,0],[0,0.5,0],[0,0.75,0],[1,0.25,0],[1,0.5,0],[1,0.75,0]];outlineConnect=0;fontColor=#232F3E;fillColor=#8C4FFF;strokeColor=#ffffff;dashed=0;verticalLabelPosition=bottom;verticalAlign=top;align=center;html=1;fontSize=12;fontStyle=0;aspect=fixed;shape=mxgraph.aws4.resourceIcon;resIcon=mxgraph.aws4.athena;" parent="0_zP4iUOua5YnoaZtltN-3" vertex="1">
          <mxGeometry x="797" y="90" width="60" height="60" as="geometry" />
        </mxCell>
        <mxCell id="0_zP4iUOua5YnoaZtltN-20" style="edgeStyle=orthogonalEdgeStyle;rounded=0;orthogonalLoop=1;jettySize=auto;html=1;entryX=0;entryY=0.5;entryDx=0;entryDy=0;entryPerimeter=0;" parent="0_zP4iUOua5YnoaZtltN-3" source="0_zP4iUOua5YnoaZtltN-15" target="0_zP4iUOua5YnoaZtltN-17" edge="1">
          <mxGeometry relative="1" as="geometry">
            <Array as="points">
              <mxPoint x="736" y="120" />
            </Array>
          </mxGeometry>
        </mxCell>
        <mxCell id="0_zP4iUOua5YnoaZtltN-42" style="edgeStyle=orthogonalEdgeStyle;rounded=0;orthogonalLoop=1;jettySize=auto;html=1;" parent="0_zP4iUOua5YnoaZtltN-3" source="0_zP4iUOua5YnoaZtltN-21" target="0_zP4iUOua5YnoaZtltN-41" edge="1">
          <mxGeometry relative="1" as="geometry" />
        </mxCell>
        <mxCell id="0_zP4iUOua5YnoaZtltN-21" value="S3 Bucket&lt;div&gt;Output&lt;/div&gt;" style="sketch=0;points=[[0,0,0],[0.25,0,0],[0.5,0,0],[0.75,0,0],[1,0,0],[0,1,0],[0.25,1,0],[0.5,1,0],[0.75,1,0],[1,1,0],[0,0.25,0],[0,0.5,0],[0,0.75,0],[1,0.25,0],[1,0.5,0],[1,0.75,0]];outlineConnect=0;fontColor=#232F3E;fillColor=#7AA116;strokeColor=#ffffff;dashed=0;verticalLabelPosition=bottom;verticalAlign=top;align=center;html=1;fontSize=12;fontStyle=0;aspect=fixed;shape=mxgraph.aws4.resourceIcon;resIcon=mxgraph.aws4.s3;" parent="0_zP4iUOua5YnoaZtltN-3" vertex="1">
          <mxGeometry x="440" y="70" width="60" height="60" as="geometry" />
        </mxCell>
        <mxCell id="0_zP4iUOua5YnoaZtltN-22" style="edgeStyle=orthogonalEdgeStyle;rounded=0;orthogonalLoop=1;jettySize=auto;html=1;" parent="0_zP4iUOua5YnoaZtltN-3" source="0_zP4iUOua5YnoaZtltN-7" edge="1">
          <mxGeometry relative="1" as="geometry">
            <mxPoint x="500" y="120" as="targetPoint" />
            <Array as="points">
              <mxPoint x="601" y="120" />
              <mxPoint x="500" y="120" />
            </Array>
          </mxGeometry>
        </mxCell>
        <mxCell id="0_zP4iUOua5YnoaZtltN-23" value="AWS API Gateway" style="sketch=0;points=[[0,0,0],[0.25,0,0],[0.5,0,0],[0.75,0,0],[1,0,0],[0,1,0],[0.25,1,0],[0.5,1,0],[0.75,1,0],[1,1,0],[0,0.25,0],[0,0.5,0],[0,0.75,0],[1,0.25,0],[1,0.5,0],[1,0.75,0]];outlineConnect=0;fontColor=#232F3E;fillColor=#8C4FFF;strokeColor=#ffffff;dashed=0;verticalLabelPosition=bottom;verticalAlign=top;align=center;html=1;fontSize=12;fontStyle=0;aspect=fixed;shape=mxgraph.aws4.resourceIcon;resIcon=mxgraph.aws4.api_gateway;" parent="0_zP4iUOua5YnoaZtltN-3" vertex="1">
          <mxGeometry x="550" y="470" width="65" height="65" as="geometry" />
        </mxCell>
        <mxCell id="0_zP4iUOua5YnoaZtltN-31" style="edgeStyle=orthogonalEdgeStyle;rounded=0;orthogonalLoop=1;jettySize=auto;html=1;" parent="0_zP4iUOua5YnoaZtltN-3" edge="1">
          <mxGeometry relative="1" as="geometry">
            <mxPoint x="696" y="515" as="sourcePoint" />
            <mxPoint x="614.9999999999999" y="515" as="targetPoint" />
          </mxGeometry>
        </mxCell>
        <mxCell id="0_zP4iUOua5YnoaZtltN-27" value="AWS Lambda&lt;div&gt;function&lt;/div&gt;" style="sketch=0;points=[[0,0,0],[0.25,0,0],[0.5,0,0],[0.75,0,0],[1,0,0],[0,1,0],[0.25,1,0],[0.5,1,0],[0.75,1,0],[1,1,0],[0,0.25,0],[0,0.5,0],[0,0.75,0],[1,0.25,0],[1,0.5,0],[1,0.75,0]];outlineConnect=0;fontColor=#232F3E;fillColor=#ED7100;strokeColor=#ffffff;dashed=0;verticalLabelPosition=bottom;verticalAlign=top;align=center;html=1;fontSize=12;fontStyle=0;aspect=fixed;shape=mxgraph.aws4.resourceIcon;resIcon=mxgraph.aws4.lambda;" parent="0_zP4iUOua5YnoaZtltN-3" vertex="1">
          <mxGeometry x="696.27" y="469.25" width="66.5" height="66.5" as="geometry" />
        </mxCell>
        <mxCell id="0_zP4iUOua5YnoaZtltN-28" style="edgeStyle=orthogonalEdgeStyle;rounded=0;orthogonalLoop=1;jettySize=auto;html=1;entryX=1;entryY=0.5;entryDx=0;entryDy=0;entryPerimeter=0;" parent="0_zP4iUOua5YnoaZtltN-3" source="0_zP4iUOua5YnoaZtltN-27" target="0_zP4iUOua5YnoaZtltN-17" edge="1">
          <mxGeometry relative="1" as="geometry" />
        </mxCell>
        <mxCell id="0_zP4iUOua5YnoaZtltN-29" style="edgeStyle=orthogonalEdgeStyle;rounded=0;orthogonalLoop=1;jettySize=auto;html=1;entryX=0;entryY=0.5;entryDx=0;entryDy=0;entryPerimeter=0;" parent="0_zP4iUOua5YnoaZtltN-3" edge="1">
          <mxGeometry relative="1" as="geometry">
            <mxPoint x="615" y="486.5" as="sourcePoint" />
            <mxPoint x="696.27" y="487.25" as="targetPoint" />
          </mxGeometry>
        </mxCell>
        <mxCell id="0_zP4iUOua5YnoaZtltN-34" value="" style="edgeStyle=orthogonalEdgeStyle;rounded=0;orthogonalLoop=1;jettySize=auto;html=1;" parent="0_zP4iUOua5YnoaZtltN-3" source="0_zP4iUOua5YnoaZtltN-33" target="0_zP4iUOua5YnoaZtltN-23" edge="1">
          <mxGeometry relative="1" as="geometry" />
        </mxCell>
        <mxCell id="0_zP4iUOua5YnoaZtltN-33" value="API Key authorizer" style="sketch=0;pointerEvents=1;shadow=0;dashed=0;html=1;strokeColor=none;fillColor=#505050;labelPosition=center;verticalLabelPosition=bottom;verticalAlign=top;outlineConnect=0;align=center;shape=mxgraph.office.concepts.settings;" parent="0_zP4iUOua5YnoaZtltN-3" vertex="1">
          <mxGeometry x="558.5" y="380" width="48" height="48" as="geometry" />
        </mxCell>
        <mxCell id="0_zP4iUOua5YnoaZtltN-38" value="AWS Lambda&lt;div&gt;function&lt;/div&gt;" style="sketch=0;points=[[0,0,0],[0.25,0,0],[0.5,0,0],[0.75,0,0],[1,0,0],[0,1,0],[0.25,1,0],[0.5,1,0],[0.75,1,0],[1,1,0],[0,0.25,0],[0,0.5,0],[0,0.75,0],[1,0.25,0],[1,0.5,0],[1,0.75,0]];outlineConnect=0;fontColor=#232F3E;fillColor=#ED7100;strokeColor=#ffffff;dashed=0;verticalLabelPosition=bottom;verticalAlign=top;align=center;html=1;fontSize=12;fontStyle=0;aspect=fixed;shape=mxgraph.aws4.resourceIcon;resIcon=mxgraph.aws4.lambda;" parent="0_zP4iUOua5YnoaZtltN-3" vertex="1">
          <mxGeometry x="300" y="130" width="60" height="60" as="geometry" />
        </mxCell>
        <mxCell id="0_zP4iUOua5YnoaZtltN-39" value="Event notification" style="edgeStyle=orthogonalEdgeStyle;rounded=0;orthogonalLoop=1;jettySize=auto;html=1;entryX=0;entryY=0.5;entryDx=0;entryDy=0;entryPerimeter=0;" parent="0_zP4iUOua5YnoaZtltN-3" source="0_zP4iUOua5YnoaZtltN-4" target="0_zP4iUOua5YnoaZtltN-38" edge="1">
          <mxGeometry x="-0.4286" relative="1" as="geometry">
            <Array as="points">
              <mxPoint x="180" y="160" />
            </Array>
            <mxPoint as="offset" />
          </mxGeometry>
        </mxCell>
        <mxCell id="0_zP4iUOua5YnoaZtltN-40" value="Trigger Job execution" style="edgeStyle=orthogonalEdgeStyle;rounded=0;orthogonalLoop=1;jettySize=auto;html=1;entryX=0.25;entryY=0;entryDx=0;entryDy=0;entryPerimeter=0;" parent="0_zP4iUOua5YnoaZtltN-3" source="0_zP4iUOua5YnoaZtltN-38" target="0_zP4iUOua5YnoaZtltN-7" edge="1">
          <mxGeometry relative="1" as="geometry">
            <Array as="points">
              <mxPoint x="585" y="180" />
            </Array>
          </mxGeometry>
        </mxCell>
        <mxCell id="0_zP4iUOua5YnoaZtltN-43" style="edgeStyle=orthogonalEdgeStyle;rounded=0;orthogonalLoop=1;jettySize=auto;html=1;" parent="0_zP4iUOua5YnoaZtltN-3" source="0_zP4iUOua5YnoaZtltN-41" target="0_zP4iUOua5YnoaZtltN-15" edge="1">
          <mxGeometry relative="1" as="geometry">
            <Array as="points">
              <mxPoint x="670" y="280" />
            </Array>
          </mxGeometry>
        </mxCell>
        <mxCell id="0_zP4iUOua5YnoaZtltN-41" value="Crawler" style="sketch=0;outlineConnect=0;fontColor=#232F3E;gradientColor=none;fillColor=#8C4FFF;strokeColor=none;dashed=0;verticalLabelPosition=bottom;verticalAlign=top;align=center;html=1;fontSize=12;fontStyle=0;aspect=fixed;pointerEvents=1;shape=mxgraph.aws4.glue_crawlers;" parent="0_zP4iUOua5YnoaZtltN-3" vertex="1">
          <mxGeometry x="641.27" y="72.5" width="55" height="55" as="geometry" />
        </mxCell>
        <mxCell id="0_zP4iUOua5YnoaZtltN-5" value="CSV input file" style="whiteSpace=wrap;html=1;shape=mxgraph.basic.document" parent="1" vertex="1">
          <mxGeometry x="50" y="170" width="50" height="50" as="geometry" />
        </mxCell>
        <mxCell id="0_zP4iUOua5YnoaZtltN-6" value="" style="edgeStyle=orthogonalEdgeStyle;rounded=0;orthogonalLoop=1;jettySize=auto;html=1;" parent="1" source="0_zP4iUOua5YnoaZtltN-5" target="0_zP4iUOua5YnoaZtltN-4" edge="1">
          <mxGeometry relative="1" as="geometry">
            <Array as="points">
              <mxPoint x="75" y="400" />
            </Array>
          </mxGeometry>
        </mxCell>
        <mxCell id="0_zP4iUOua5YnoaZtltN-35" value="Internet" style="shape=image;html=1;verticalAlign=top;verticalLabelPosition=bottom;labelBackgroundColor=#ffffff;imageAspect=0;aspect=fixed;image=https://cdn4.iconfinder.com/data/icons/ionicons/512/icon-ios7-world-outline-128.png" parent="1" vertex="1">
          <mxGeometry x="35" y="565" width="80" height="80" as="geometry" />
        </mxCell>
        <mxCell id="eGv9pMTqBnW05FOgkVkg-1" style="edgeStyle=orthogonalEdgeStyle;rounded=0;orthogonalLoop=1;jettySize=auto;html=1;" edge="1" parent="1" source="0_zP4iUOua5YnoaZtltN-47" target="0_zP4iUOua5YnoaZtltN-23">
          <mxGeometry relative="1" as="geometry">
            <Array as="points">
              <mxPoint x="290" y="623" />
              <mxPoint x="290" y="623" />
            </Array>
          </mxGeometry>
        </mxCell>
        <mxCell id="0_zP4iUOua5YnoaZtltN-47" value="External network" style="fillColor=none;strokeColor=#5A6C86;dashed=1;verticalAlign=top;fontStyle=0;fontColor=#5A6C86;whiteSpace=wrap;html=1;" parent="1" vertex="1">
          <mxGeometry x="-5" y="530" width="160" height="150" as="geometry" />
        </mxCell>
        <mxCell id="0_zP4iUOua5YnoaZtltN-48" value="Input file source" style="fillColor=none;strokeColor=#5A6C86;dashed=1;verticalAlign=top;fontStyle=0;fontColor=#5A6C86;whiteSpace=wrap;html=1;" parent="1" vertex="1">
          <mxGeometry y="120" width="160" height="150" as="geometry" />
        </mxCell>
      </root>
    </mxGraphModel>
  </diagram>
</mxfile>
